<svg xmlns="http://www.w3.org/2000/svg" viewBox="0 0 512 512">
  <g fill="none" stroke-linejoin="round">
    <circle cx="256" cy="256" r="244" stroke="#071019" stroke-width="18"/>
    <path d="M256 256 73 95A244 244 0 0 1 439 95Z" fill="#f5df2a" fill-opacity=".52" stroke="#f5df2a" stroke-width="6"/>
    <path d="M256 256 439 95A244 244 0 0 1 467 363Z" fill="#38bde5" fill-opacity=".5" stroke="#38bde5" stroke-width="6"/>
    <path d="M256 256 467 363A244 244 0 0 1 45 363Z" fill="#e64032" fill-opacity=".52" stroke="#e64032" stroke-width="6"/>
    <path d="M256 256 45 363A244 244 0 0 1 73 95Z" fill="#38bde5" fill-opacity=".5" stroke="#38bde5" stroke-width="6"/>
    <polygon points="256,205 300,231 300,281 256,307 212,281 212,231" fill="#071019" fill-opacity=".34" stroke="#fff" stroke-width="6"/>
  </g>
  <g fill="#fff" font-family="Arial Narrow,Arial,sans-serif" font-size="22" font-weight="900" text-anchor="middle" paint-order="stroke" stroke="#071019" stroke-width="7">
    <text x="256" y="70">FRONT HIT ZONE</text><text x="406" y="244" transform="rotate(62 406 244)">RIGHT SIDE</text>
    <text x="256" y="456">REAR HIT ZONE</text><text x="106" y="244" transform="rotate(-62 106 244)">LEFT SIDE</text>
  </g>
</svg>
