<svg xmlns="http://www.w3.org/2000/svg" viewBox="0 0 512 512">
  <defs><filter id="shadow"><feDropShadow dx="0" dy="2" stdDeviation="3" flood-opacity=".8"/></filter></defs>
  <g stroke="#071019" stroke-width="6" stroke-linejoin="round" filter="url(#shadow)">
    <path d="M256 256 16 16 176 96Z" fill="#e2cc25" fill-opacity=".58"/>
    <path d="M256 256 176 96 224 16 256 16Z" fill="#f05a28" fill-opacity=".62"/>
    <path d="M256 256 256 16 288 16 336 96Z" fill="#f05a28" fill-opacity=".62"/>
    <path d="M256 256 336 96 496 16Z" fill="#e2cc25" fill-opacity=".58"/>
    <path d="M256 256 496 496 336 416Z" fill="#b84fd0" fill-opacity=".62"/>
    <path d="M256 256 336 416 288 496 256 496Z" fill="#eb5727" fill-opacity=".64"/>
    <path d="M256 256 256 496 224 496 176 416Z" fill="#eb5727" fill-opacity=".64"/>
    <path d="M256 256 176 416 16 496Z" fill="#b84fd0" fill-opacity=".62"/>
    <polygon points="256,202 303,229 303,283 256,310 209,283 209,229" fill="#071019" fill-opacity=".28" stroke="#fff"/>
    <path d="M256 218 272 246 256 238 240 246Z" fill="#fff" stroke-width="2"/>
  </g>
  <g fill="#fff" font-family="Arial Narrow,Arial,sans-serif" font-size="17" font-weight="900" text-anchor="middle" paint-order="stroke" stroke="#071019" stroke-width="6">
    <text x="112" y="76" transform="rotate(25 112 76)">NOSE / LEFT WING</text>
    <text x="220" y="60" transform="rotate(-8 220 60)">NOSE + LEFT</text>
    <text x="292" y="60" transform="rotate(8 292 60)">NOSE + RIGHT</text>
    <text x="400" y="76" transform="rotate(-25 400 76)">NOSE / RIGHT WING</text>
    <text x="406" y="445" transform="rotate(25 406 445)">AFT RIGHT WING</text>
    <text x="294" y="456" transform="rotate(-8 294 456)">AFT + RIGHT</text>
    <text x="218" y="456" transform="rotate(8 218 456)">AFT + LEFT</text>
    <text x="106" y="445" transform="rotate(-25 106 445)">AFT LEFT WING</text>
  </g>
  <circle cx="256" cy="256" r="248" fill="none" stroke="#53b9df" stroke-width="8"/>
</svg>
